<svg aria-hidden="true" style="position: absolute; width: 0; height: 0; overflow: hidden;" version="1.1" xmlns="http://www.w3.org/2000/svg" xmlns:xlink="http://www.w3.org/1999/xlink">
<defs>
<symbol id="icon-email" viewBox="0 0 34 32">
<path d="M28.267 3.823l-10.408 8.541c-0.491 0.335-1.093 0.335-1.584 0l-10.408-8.541h22.4zM28.267 0h-22.4c-2.646 0-4.8 2.573-4.8 5.735v19.116c0 3.162 2.154 5.735 4.8 5.735h22.4c2.646 0 4.8-2.573 4.8-5.735v-19.116c0-3.162-2.154-5.735-4.8-5.735z"></path>
</symbol>
<symbol id="icon-facebook" viewBox="0 0 32 32">
<path fill="#07617d" style="fill: var(--color1, #07617d)" d="M1 16c0 7.417 5.417 13.583 12.5 14.833l0.084-0.067c-0.028-0.005-0.056-0.011-0.084-0.016v-10.583h-3.75v-4.167h3.75v-3.333c0-3.75 2.417-5.833 5.833-5.833 1.083 0 2.25 0.167 3.333 0.333v3.833h-1.917c-1.833 0-2.25 0.917-2.25 2.083v2.917h4l-0.667 4.167h-3.333v10.583c-0.028 0.006-0.056 0.011-0.084 0.016l0.084 0.067c7.083-1.25 12.5-7.417 12.5-14.833 0-8.25-6.75-15-15-15s-15 6.75-15 15z"></path>
</symbol>
<symbol id="icon-inst" viewBox="0 0 32 32">
<path fill="#07617d" style="fill: var(--color1, #07617d)" d="M16.001 0.132c-4.309 0-4.85 0.019-6.543 0.096-1.689 0.077-2.842 0.345-3.851 0.737-1.044 0.405-1.929 0.947-2.811 1.83s-1.425 1.767-1.831 2.811c-0.393 1.009-0.661 2.163-0.737 3.851-0.076 1.693-0.096 2.234-0.096 6.543s0.019 4.849 0.096 6.541c0.078 1.689 0.345 2.842 0.737 3.851 0.406 1.044 0.948 1.929 1.83 2.811s1.767 1.426 2.81 1.831c1.010 0.392 2.163 0.66 3.852 0.737 1.693 0.077 2.233 0.096 6.542 0.096s4.849-0.019 6.541-0.096c1.689-0.077 2.844-0.345 3.853-0.737 1.043-0.405 1.927-0.949 2.809-1.831 0.883-0.882 1.425-1.767 1.831-2.811 0.39-1.009 0.658-2.163 0.737-3.851 0.076-1.693 0.096-2.232 0.096-6.542s-0.020-4.85-0.096-6.543c-0.079-1.689-0.347-2.842-0.737-3.851-0.407-1.044-0.949-1.929-1.831-2.811s-1.765-1.425-2.81-1.83c-1.012-0.392-2.165-0.66-3.855-0.737-1.692-0.077-2.231-0.096-6.542-0.096h0.005zM14.577 2.992c0.422-0.001 0.894 0 1.423 0 4.236 0 4.739 0.015 6.412 0.091 1.547 0.071 2.387 0.329 2.946 0.546 0.741 0.288 1.268 0.631 1.823 1.187s0.899 1.084 1.187 1.825c0.217 0.559 0.476 1.398 0.546 2.945 0.076 1.673 0.093 2.175 0.093 6.41s-0.016 4.737-0.093 6.41c-0.071 1.547-0.329 2.387-0.546 2.945-0.288 0.741-0.632 1.268-1.187 1.823s-1.083 0.899-1.823 1.187c-0.559 0.218-1.399 0.476-2.946 0.547-1.673 0.076-2.175 0.093-6.412 0.093s-4.739-0.017-6.412-0.093c-1.547-0.071-2.387-0.33-2.946-0.547-0.74-0.288-1.269-0.631-1.825-1.187s-0.899-1.083-1.187-1.824c-0.217-0.559-0.476-1.398-0.546-2.945-0.076-1.673-0.091-2.175-0.091-6.412s0.015-4.737 0.091-6.41c0.071-1.547 0.329-2.387 0.546-2.946 0.288-0.74 0.632-1.269 1.187-1.825s1.084-0.899 1.825-1.187c0.559-0.218 1.399-0.476 2.946-0.547 1.464-0.066 2.031-0.086 4.988-0.089v0.004zM24.471 5.626c-1.051 0-1.904 0.852-1.904 1.903s0.853 1.904 1.904 1.904 1.904-0.853 1.904-1.904c0-1.051-0.853-1.904-1.904-1.904v0.001zM16.001 7.851c-4.5 0-8.149 3.649-8.149 8.149s3.648 8.147 8.149 8.147c4.5 0 8.147-3.647 8.147-8.147s-3.648-8.149-8.148-8.149h0zM16.001 10.711c2.921 0 5.289 2.368 5.289 5.289s-2.368 5.289-5.289 5.289c-2.921 0-5.289-2.368-5.289-5.289s2.368-5.289 5.289-5.289v0z"></path>
</symbol>
<symbol id="icon-logo" viewBox="0 0 135 32">
<path d="M21.548 3.19c0 1.123-1.501 3.765-2.613 4.599-0.535 0.401 4.936 4.466 6.621 4.919 0.795 0.214 1.577-0.007 2.328-0.658 2.027-1.758 0.505-5.439-3.548-8.583-2.372-1.84-2.789-1.882-2.789-0.276zM25.258 17.032c0.888 2.665 0.854 3.449-0.214 4.913-1.856 2.544-1.787 3.468 0.436 5.849l2.051 2.196 0.9-1.19c1.771-2.342 1.81-8.62 0.066-10.866-0.884-1.138-3.039-2.869-3.573-2.869-0.177 0-0.028 0.886 0.333 1.967z"></path>
<path d="M20.236 14.531c-0.586 0.259-1.997 1.193-3.135 2.076s-2.572 1.605-3.187 1.605c-0.687 0-1.237 0.403-1.428 1.048-0.377 1.27-2.098 1.799-4.659 1.431-2.504-0.36-3.298 0.377-3.774 3.498-0.264 1.729-0.711 2.757-1.368 3.148-0.537 0.319-1.068 0.638-1.179 0.708-0.377 0.24 1.666 2.339 2.993 3.073 1.61 0.892 4.484 0.952 5.936 0.123 1.3-0.742 2.011-1.659 3.311-4.275 1.241-2.497 2.695-2.459 4.119 0.108 1.758 3.167 3.482 4.778 5.114 4.778 1.479 0 1.991-0.667 1.011-1.316-0.861-0.569-2.443-4.351-2.443-5.839 0-0.97 0.569-1.985 1.779-3.171 1.628-1.597 1.756-1.927 1.508-3.904-0.149-1.188-0.453-2.35-0.677-2.583-0.697-0.727-2.807-1-3.922-0.507z"></path>
<path d="M9.832 0.725c-5.631 2.199-9.852 10.598-9.832 19.564 0.009 4.037 0.521 5.286 1.816 4.427 0.587-0.39 0.919-1.371 1.020-3.013 0.191-3.119 1.243-3.868 3.818-2.716 3.77 1.687 6.99 0.539 5.383-1.918-2.407-3.679 1.063-10.030 5.017-9.182 1.065 0.228 1.672 0.040 2.309-0.715 1.036-1.226 1.252-5.38 0.331-6.366-0.965-1.033-7.288-1.085-9.862-0.080z"></path>
<path d="M39.918 15.874v6.581l3.879-0.308-0.139-2.754-0.139-2.754h6.073l-0.223 2.885-0.224 2.885h3.51v-13.115h-3.53l0.235 2.623 0.235 2.623h-6.098l0.17-2.623 0.17-2.623-3.919-0.001v6.581zM95.184 9.822c-1.283 0.553-2.114 2.071-2.114 3.858 0 1.722 2.123 3.482 4.198 3.482 0.889 0 2.206 0.24 2.927 0.534 1.086 0.442 1.207 0.666 0.707 1.311-1.030 1.329-6.362 0.592-6.362-0.88 0-1.103-0.842-0.265-1.403 1.396-0.341 1.010-0.771 1.836-0.956 1.836-0.704-0.001-4.504-8.295-4.195-9.157 0.269-0.751 0.005-0.854-1.832-0.712-1.705 0.131-2.118 0.349-2.007 1.060 0.15 0.967-3.166 8.434-3.874 8.722-1.136 0.463-0.216 1.137 1.551 1.137 1.301 0 1.954-0.225 1.901-0.656-0.206-1.698 0.101-1.967 2.242-1.967s2.447 0.269 2.241 1.967c-0.107 0.879 4.215 0.898 4.488 0.020 0.155-0.498 0.627-0.498 2.18 0 3.97 1.274 7.336 0.621 8.755-1.698 1.744-2.849-0.14-5.221-4.702-5.925-1.867-0.287-2.674-0.647-2.674-1.192 0-1.277 3.565-1.326 5.15-0.071l1.319 1.044 0.756-1.7 0.757-1.7-2.161-0.619c-2.5-0.716-5.356-0.753-6.892-0.091zM104.827 12.73c0 1.529 0.079 1.59 1.769 1.379l1.769-0.221-0.182 4.285-0.181 4.285 3.356-0.311-0.231-8.28 1.748 0.304c1.699 0.295 1.748 0.256 1.748-1.368v-1.672h-9.798v1.599zM54.765 15.72c0.14 3.834 0.297 4.463 1.378 5.508 2.14 2.070 7.6 1.399 8.462-1.040 0.231-0.654 0.51-2.901 0.62-4.993l0.199-3.803-3.461-0.001v4.002c0 3.522-0.117 4.048-0.98 4.391-0.539 0.215-1.5 0.183-2.136-0.071-1.097-0.438-1.146-0.657-0.97-4.391l0.185-3.93h-3.455l0.158 4.328zM66.862 16.901v5.508h3.020l-0.172-3.016-0.172-3.016 1.335 2.754c0.734 1.515 1.565 2.754 1.847 2.754s1.172-1.24 1.98-2.754l1.47-2.754 0.152 2.268c0.084 1.247-0.108 2.605-0.427 3.016-0.485 0.626-0.27 0.748 1.317 0.748h1.897v-11.064l-1.959 0.155c-1.392 0.11-1.96 0.393-1.96 0.978 0 0.949-1.787 4.685-2.242 4.685-0.465 0-2.186-4.336-2.023-5.098 0.1-0.466-0.5-0.673-1.959-0.673h-2.104v5.508zM117.564 12.455c0 1.198-3.317 8.548-3.979 8.817-1.136 0.463-0.216 1.137 1.551 1.137 1.301 0 1.954-0.225 1.901-0.656-0.219-1.809 0.053-2.023 2.364-1.865 2.084 0.143 2.315 0.283 2.211 1.34-0.103 1.045 0.104 1.18 1.808 1.18 1.753 0 3.049-0.707 2.082-1.136-0.786-0.348-4.467-8.336-4.193-9.1 0.219-0.614-0.152-0.781-1.732-0.781-1.694 0-2.012 0.168-2.012 1.062zM123.933 11.873c0 0.264 0.175 0.559 0.39 0.656s1.227 1.355 2.251 2.798c1.637 2.308 1.833 2.89 1.63 4.852l-0.23 2.229h1.899c1.044 0 1.9-0.236 1.9-0.525s-0.221-0.525-0.49-0.525c-1.161 0-0.423-3.384 1.3-5.97 0.985-1.477 1.977-2.764 2.204-2.86 1.178-0.497 0.141-1.137-1.843-1.137-1.735 0-2.196 0.17-1.993 0.736 0.145 0.404-0.028 1.163-0.384 1.685-0.553 0.81-0.765 0.846-1.447 0.239-0.474-0.421-0.681-1.107-0.51-1.685 0.255-0.863 0.003-0.975-2.194-0.975-1.365 0-2.482 0.217-2.482 0.481zM86.694 17.294c0.004 0.217-0.323 0.393-0.727 0.393-0.829 0-0.859-0.092-0.422-1.313 0.25-0.697 0.397-0.732 0.727-0.174 0.228 0.385 0.418 0.877 0.422 1.093zM120.006 17.294c0.004 0.217-0.323 0.393-0.727 0.393-0.829 0-0.859-0.092-0.422-1.313 0.25-0.697 0.397-0.732 0.727-0.174 0.228 0.385 0.418 0.877 0.422 1.093z"></path>
</symbol>
<symbol id="icon-mask" viewBox="0 0 23 32">
<path d="M11.556 9.558c-1.103 0-2 1.072-2 2.389s0.897 2.389 2 2.389c1.103 0 2-1.072 2-2.389s-0.897-2.389-2-2.389zM11.556 17.523c-2.573 0-4.667-2.501-4.667-5.575s2.093-5.575 4.667-5.575c2.573 0 4.667 2.501 4.667 5.575s-2.093 5.575-4.667 5.575zM11.556 0c-5.881 0-10.667 5.662-10.667 12.621 0 8.72 9.399 18.445 9.799 18.855 0.251 0.257 0.559 0.384 0.868 0.384s0.617-0.127 0.868-0.384c0.4-0.409 9.799-10.135 9.799-18.855 0-6.96-4.785-12.621-10.667-12.621z"></path>
</symbol>
<symbol id="icon-phone" viewBox="0 0 32 32">
<path d="M24.157 31.373c-13.321 0-24.157-10.836-24.157-24.157 0-3.98 3.238-7.216 7.216-7.216 0.408 0 0.811 0.035 1.202 0.102 0.381 0.061 0.765 0.158 1.137 0.287 0.511 0.177 0.894 0.606 1.015 1.133l2.149 9.355c0.118 0.515-0.031 1.054-0.397 1.437-0.215 0.223-0.22 0.227-2.165 1.245 1.575 3.41 4.312 6.138 7.655 7.66 1.018-1.947 1.024-1.953 1.247-2.166 0.384-0.367 0.926-0.51 1.439-0.397l9.355 2.148c0.525 0.121 0.954 0.504 1.131 1.013 0.129 0.37 0.224 0.753 0.289 1.147 0.066 0.387 0.101 0.789 0.101 1.194 0 3.98-3.236 7.216-7.216 7.216z"></path>
</symbol>
<symbol id="icon-watsup" viewBox="0 0 31 32">
<path fill="#07617d" style="fill: var(--color1, #07617d)" d="M16.035 0.931c3.715 0.183 7.176 1.714 9.82 4.36 2.82 2.822 4.372 6.573 4.371 10.562-0.003 8.231-6.705 14.929-14.936 14.929-3.096 0-5.556-0.951-7.144-1.817l-7.918 2.076 2.119-7.736c-1.307-2.264-1.995-4.832-1.994-7.463 0.003-8.231 6.704-14.928 14.937-14.928l0.746 0.018zM8.512 26.261l0.453 0.269c1.906 1.131 4.091 1.729 6.319 1.73h0.005c6.843 0 12.412-5.567 12.415-12.409 0.001-3.316-1.289-6.433-3.633-8.779s-5.461-3.638-8.777-3.639c-6.848 0-12.417 5.566-12.42 12.407-0.001 2.345 0.655 4.628 1.898 6.604l0.295 0.47-1.254 4.579 4.699-1.232zM22.814 19.402c-0.093-0.156-0.342-0.249-0.715-0.436s-2.208-1.089-2.55-1.214c-0.342-0.124-0.591-0.187-0.84 0.187s-0.964 1.214-1.182 1.463c-0.218 0.249-0.435 0.28-0.809 0.093s-1.576-0.581-3.001-1.851c-1.109-0.989-1.858-2.211-2.076-2.584s-0.023-0.575 0.164-0.761c0.168-0.167 0.373-0.436 0.56-0.654s0.249-0.373 0.373-0.622c0.124-0.249 0.062-0.467-0.031-0.653s-0.84-2.023-1.151-2.77c-0.303-0.727-0.611-0.629-0.84-0.64-0.217-0.011-0.466-0.013-0.715-0.013s-0.653 0.093-0.995 0.467c-0.342 0.373-1.306 1.276-1.306 3.112s1.337 3.61 1.524 3.859c0.187 0.249 2.632 4.017 6.376 5.633 0.89 0.384 1.586 0.614 2.128 0.786 0.894 0.284 1.708 0.244 2.351 0.148 0.717-0.107 2.208-0.902 2.519-1.774s0.311-1.618 0.218-1.774z"></path>
</symbol>
</defs>
</svg>
